<svg xmlns="http://www.w3.org/2000/svg" width="260" height="260" viewBox="0 0 260 260">
<defs>
<linearGradient id="hair" x2=".8" y2="1"><stop stop-color="#49302c"/><stop offset=".5" stop-color="#241b23"/><stop offset="1" stop-color="#16121c"/></linearGradient>
<radialGradient id="skin"><stop stop-color="#eeb082"/><stop offset="1" stop-color="#be7450"/></radialGradient>
<linearGradient id="neck" x2="1" y2="1"><stop stop-color="#db9a70"/><stop offset="1" stop-color="#ab684b"/></linearGradient>
<linearGradient id="top" x2=".7" y2="1"><stop stop-color="#30232f"/><stop offset="1" stop-color="#131019"/></linearGradient>
</defs>
<path d="M73 87q-1-67 52-70 55-2 64 59l8 148-145 1z" fill="url(#hair)"/>
<path d="M89 211q6-37 36-39h10q30 0 36 39l13 49H74z" fill="url(#top)"/>
<path d="M112 145v31l-13 12q29 20 62 0l-14-12v-31" fill="url(#neck)"/>
<path d="M92 195l6-10 10 4 1 17m52-11-6-10-10 4-1 17" fill="none" stroke="#17121a" stroke-width="6"/>
<path d="M84 79q-1 49 13 69 12 17 32 19 23-1 35-20 17-24 11-67-52-35-91-1" fill="url(#skin)"/>
<path d="M79 105q-7-51 38-77 36-17 56 22 5 16 8 49-16-37-47-46-30 13-55 52" fill="url(#hair)"/>
<path d="M90 79q5-28 31-39m18-6q30 16 34 46m-91 42q-6 54-10 96m99-101 10 99" fill="none" stroke="#795144" stroke-width="3" stroke-linecap="round" opacity=".3"/>
<path d="M96 97q10-6 22-2m24 0q11-4 19 3" fill="none" stroke="#4a2925" stroke-width="3.5" stroke-linecap="round"/>
<path d="M96 109q10-8 23 1-12 10-23-1m44 0q12-8 23 2-12 9-23-2" fill="#f6eee6"/>
<path d="M96 109l-5-4m70 5 5-4" fill="none" stroke="#392327" stroke-width="2.5" stroke-linecap="round"/>
<ellipse cx="108" cy="110" rx="5" ry="6" fill="#633c2b"/><ellipse cx="152" cy="111" rx="5" ry="6" fill="#633c2b"/>
<ellipse cx="108" cy="110" rx="2.5" ry="4" fill="#1f171f"/><ellipse cx="152" cy="111" rx="2.5" ry="4" fill="#1f171f"/>
<circle cx="106" cy="107" r="1.8" fill="#fff"/><circle cx="150" cy="108" r="1.8" fill="#fff"/>
<path d="M128 113l-2 12q5 4 10 0" fill="none" stroke="#ab694e" stroke-width="2.5" stroke-linecap="round"/>
<path d="M115 140q7-7 14-2 6-3 13 2-14 12-27 0" fill="#aa5254"/>
<path d="M117 140q13 4 23 0" fill="none" stroke="#713941" stroke-width="1.5"/>
<ellipse cx="101" cy="128" rx="8" ry="4" fill="#d46c66" opacity=".25"/><ellipse cx="157" cy="128" rx="8" ry="4" fill="#d46c66" opacity=".25"/>
<path d="M91 191q-20 35-10 56 8 10 29-2l-5-15-15 5 10-39m65-5q20 35 10 56-8 10-29-2l5-15 15 5-10-39" fill="url(#neck)"/>
<path d="M101 235q9-9 17-1l8 10-8 9H99q-8-8 2-18m53 0q-9-9-17-1l-8 10 8 9h19q8-8-2-18" fill="url(#skin)"/>
<path d="M105 241l12 5m-10 1 8 4m35-10-12 5m10 1-8 4" stroke="#ac6c52" stroke-width="1.5" stroke-linecap="round"/>
<path d="M83 108q-12 38-7 88m100-88q12 38 7 88" fill="none" stroke="#211922" stroke-width="9" stroke-linecap="round"/>
</svg>
